PathFileType	4	(X/Y/Z)	pose_F01_0-89.trc
DataRate	CameraRate	NumFrames	NumMarkers	Units	OrigDataRate	OrigDataStartFrame	OrigNumFrames
30	30	8	21	m	30	44	89
Frame#	Time	CHip			RHip			RKnee			RAnkle			RBigToe			RSmallToe			RHeel			LHip			LKnee			LAnkle			LBigToe			LSmallToe			LHeel			Neck			Nose			RShoulder			RElbow			RWrist			LShoulder			LElbow			LWrist			
		X1	Y1	Z1	X2	Y2	Z2	X3	Y3	Z3	X4	Y4	Z4	X5	Y5	Z5	X6	Y6	Z6	X7	Y7	Z7	X8	Y8	Z8	X9	Y9	Z9	X10	Y10	Z10	X11	Y11	Z11	X12	Y12	Z12	X13	Y13	Z13	X14	Y14	Z14	X15	Y15	Z15	X16	Y16	Z16	X17	Y17	Z17	X18	Y18	Z18	X19	Y19	Z19	X20	Y20	Z20	X21	Y21	Z21	
44	1.4666666666666666	-0.1574190261530532	1.8294328851864412	-0.4877030517228308	-0.16658565446314855	1.8297692219742823	-0.4365208230165824	-0.16030423012797684	1.7061896470257403	-0.404577001845783	-0.1386595059106739	1.5918363481486903	-0.4382012344406454	-0.17072732978930155	1.5590914292446514	-0.4666414776873215	-0.16274012219583808	1.566098699203062	-0.4444505054024301	-0.13370278400103763	1.5895302720713307	-0.43910491663149737	-0.15280963590530225	1.8309924751829727	-0.5498003560326132	-0.15516251909025414	1.7084410115434863	-0.5105308944357374	-0.14999663279299483	1.5806360047594306	-0.5002082128765222	-0.1857685544379794	1.5486734430082048	-0.49479860050915614	-0.18174629402432188	1.5531775352868111	-0.5168395842074581	-0.13615566403110968	1.5684196455873207	-0.496583652812417	-0.1455422860892782	1.9788301922291212	-0.5262209203199627	-0.18374129683792448	2.030491862259643	-0.5217519225242925	-0.15391270426710138	1.981393607299438	-0.4528507163244569	-0.1881240345075824	1.9218624525790113	-0.43001329679315803	-0.18878489063292134	1.9830088305739135	-0.4730040341315677	-1.7394295352311069	1.8878321422119737	1.1636835135015862	-0.1352874506076156	1.8977800074156164	-0.6203381144019424	-0.15566378340905485	1.8242708424807437	-0.5941638251285999
45	1.5	-0.15931313320648052	1.8288423447821354	-0.4854939989836638	-0.1658361382760756	1.8279609089695183	-0.4331209441213303	-0.16055757372811721	1.702713096541692	-0.41285874951972773	-0.1386595059106739	1.5918363481486903	-0.4382012344406454	-0.17072732978930155	1.5590914292446514	-0.4666414776873215	-0.16274012219583808	1.566098699203062	-0.4444505054024301	-0.13370278400103763	1.5895302720713307	-0.43910491663149737	-0.15298031856464936	1.8294310645258698	-0.5495494101410582	-0.15171727630579607	1.7029601582403864	-0.5135538996476611	-0.1485642990742352	1.5782411185846017	-0.5012317849174659	-0.19077661625522968	1.5449245761797779	-0.4889697070931134	-0.18404116978429091	1.551536844783278	-0.5140217558792559	-0.13662502831041357	1.565465682249455	-0.49538924399904166	-0.14476706685203378	1.9799947205237507	-0.5234556328897714	-0.18375538877489542	2.030390793356973	-0.5215407088283758	-0.15496161861215668	1.982506779277281	-0.4478701489173062	-0.18547151885116342	1.9216819246005017	-0.42935311626911193	-0.19185482474949855	1.982900551683857	-0.48300718658326247	-1.75216004259832	1.8898457172871435	1.1847765114949613	-0.13757312275137132	1.9004167712516078	-0.6184184850548028	-0.15643940401091233	1.8269703092026923	-0.5976644845508267
46	1.5333333333333334	-0.15739426904797912	1.8317850094399155	-0.4881233493545984	-0.16677283464558787	1.8307854019379506	-0.4366676645705823	-0.16274452004796677	1.70448178759809	-0.41071716037937006	-0.1386595059106739	1.5918363481486903	-0.4382012344406454	-0.17072732978930155	1.5590914292446514	-0.4666414776873215	-0.16274012219583808	1.566098699203062	-0.4444505054024301	-0.13370278400103763	1.5895302720713307	-0.43910491663149737	-0.15288924853275024	1.8322048512591607	-0.5500152648598572	-0.14801381537946895	1.7031430800282663	-0.5175139267615834	-0.14856372336826762	1.578442850052621	-0.5013111057355129	-0.18673505790789108	1.5477164309283715	-0.493964068232452	-0.18315793468978697	1.5530364027800092	-0.5192449320411685	-0.13667091333322867	1.5657298964453699	-0.4954510058117688	-0.14483760741134696	1.978892727283824	-0.5234272158440894	-0.18380280100723748	2.029252432288324	-0.5216197450411387	-0.15502205873770208	1.9824703121618539	-0.4477205261220362	-0.18523010907215098	1.917382071803435	-0.4281166845650492	-0.19166692578579825	1.9803891551949646	-0.48234033138483545	-1.7523961535170505	1.8900024318528454	1.185137358590124	-0.14123548360354762	1.900453909006437	-0.6108306908563984	-0.15801414688722273	1.8243693482468049	-0.5918495666194581
47	1.5666666666666667	-0.1574524563664444	1.8302241361070613	-0.48794767575931697	-0.16684275187940167	1.8292324171067564	-0.4365199541826059	-0.1644726839954562	1.7046772802566081	-0.41789539661301106	-0.1386595059106739	1.5918363481486903	-0.4382012344406454	-0.17072732978930155	1.5590914292446514	-0.4666414776873215	-0.16274012219583808	1.566098699203062	-0.4444505054024301	-0.13370278400103763	1.5895302720713307	-0.43910491663149737	-0.14997331982721163	1.832009640937877	-0.5490288806077314	-0.142101798701598	1.7009883018740097	-0.5237880304390302	-0.14613459058397849	1.5793401194987968	-0.5040885639345378	-0.18635518826055816	1.5461995269615136	-0.49385203633836217	-0.18104872530163335	1.5525910739679456	-0.5126290925457531	-0.13583525825557902	1.5668788257338429	-0.4918005554784885	-0.1467352658478596	1.9799470452764658	-0.52108961603593	-0.18375764437913691	2.0292807152314256	-0.5215570500614027	-0.15589864137318635	1.9821261261689997	-0.441868931514559	-0.18515534995577512	1.9175129959853665	-0.42798570569674566	-0.19455703628567214	1.9792496335737666	-0.49149537093445395	-1.7524474576232967	1.8898946730738277	1.185244478763334	-0.1373887840411922	1.9005318191593608	-0.6181271781752128	-0.15525561134178434	1.8269043523776505	-0.5947559013566458
48	1.6	-0.15749971011273547	1.830060118737418	-0.48787972570976895	-0.16676541946118972	1.8302929820418323	-0.4366596527233786	-0.16754538625711907	1.7055749239087186	-0.4188445732351046	-0.1386595059106739	1.5918363481486903	-0.4382012344406454	-0.17072732978930155	1.5590914292446514	-0.4666414776873215	-0.16274012219583808	1.566098699203062	-0.4444505054024301	-0.13370278400103763	1.5895302720713307	-0.43910491663149737	-0.1499990771553542	1.8319988894189845	-0.5489599968560539	-0.1417090794446108	1.7033157510083532	-0.524528779158049	-0.14608377800571223	1.579398870602276	-0.5041685422360926	-0.18655684689977617	1.5473997393452403	-0.4940110238115459	-0.17774348956633168	1.5543431368984724	-0.520977555788168	-0.13542307872628273	1.5676506626515279	-0.49245850267090774	-0.1448219763249408	1.9785766982181545	-0.5232833805586115	-0.18375330833004144	2.0280164684297883	-0.5210647990105334	-0.15603136981559088	1.979747129434159	-0.4417982152331841	-0.18411308230562579	1.915669684368092	-0.42441879459210635	-0.1921277563492502	1.974033562066633	-0.47312793622987126	-1.7526851221285433	1.8898384121422174	1.1856889984991903	-0.1353946959573367	1.8992554285946093	-0.6203553665192497	-0.154375146760367	1.821613995183763	-0.5993354749148433
49	1.6333333333333333	-0.1575851171599707	1.8287362312137738	-0.48751581406119066	-0.1661416426604738	1.8280317668171113	-0.43290454497082703	-0.17185900192032566	1.702702251476239	-0.4134556160869715	-0.1386595059106739	1.5918363481486903	-0.4382012344406454	-0.17072732978930155	1.5590914292446514	-0.4666414776873215	-0.16274012219583808	1.566098699203062	-0.4444505054024301	-0.13370278400103763	1.5895302720713307	-0.43910491663149737	-0.14844869617341597	1.8291474008115993	-0.5419597780759723	-0.14007423649988102	1.7038483632610237	-0.5262293681157879	-0.14613392499236433	1.5794625003020248	-0.5041440260104842	-0.18654164018513927	1.5472046062796312	-0.4938896512588521	-0.17905146610472517	1.5528879650770375	-0.514755632830529	-0.136690951374008	1.5689342807967712	-0.49584429454730855	-0.14592070036927468	1.9770216771370264	-0.5174714375266207	-0.1837998763587112	2.0256491153190375	-0.5207052855334002	-0.15794411777435213	1.979631878053525	-0.43942524632227253	-0.18337816985813285	1.913539076211463	-0.42096945100662525	-0.1929730425146084	1.972854511936376	-0.46697800121255334	-1.76394851897321	1.8897236514013034	1.2047716749892725	-0.131665993581648	1.8992645968464437	-0.6075011122846312	-0.15200822579861353	1.8256923469955477	-0.6022267279981066
50	1.6666666666666667	-0.15869216885749834	1.828909149762773	-0.48196905639253007	-0.16604880826398957	1.8272370635394932	-0.42365997996587174	-0.16923634615898894	1.7034915576850023	-0.3892890024438358	-0.1386595059106739	1.5918363481486903	-0.4382012344406454	-0.17072732978930155	1.5590914292446514	-0.4666414776873215	-0.16274012219583808	1.566098699203062	-0.4444505054024301	-0.13370278400103763	1.5895302720713307	-0.43910491663149737	-0.14929614632801508	1.829006721774853	-0.5363610829560169	-0.1389874775189954	1.7022603933361522	-0.5230829030807219	-0.14609707504473238	1.5794368094604616	-0.5042760152651078	-0.18492560724046592	1.549417672904716	-0.4956761669001851	-0.18010450435857203	1.5537459859798293	-0.51782971623394	-0.1365520741940236	1.5686729982289866	-0.5047969893891174	-0.14787811250406477	1.976966337749555	-0.5149810540928369	-0.1857742769761535	2.0254692604978537	-0.5183089499999907	-0.15899809790162994	1.9769835863051017	-0.4333741456140607	-0.18125128170982246	1.9156202967238094	-0.4058005864591462	-0.19286543108417922	1.9763635742907792	-0.4322793990595704	-1.7650328970367437	1.8896885894752937	1.206227134696732	-0.1299210599829592	1.89978369849234	-0.601050649983825	-0.14838910979477732	1.826939522294117	-0.601648855802599
51	1.7	-0.15927478880275606	1.8301544016430074	-0.47655566217985645	-0.16282716731026894	1.8286074162285697	-0.4138469921002373	-0.17067662095284433	1.7029026761211543	-0.3781878895064167	-0.1386595059106739	1.5918363481486903	-0.4382012344406454	-0.17072732978930155	1.5590914292446514	-0.4666414776873215	-0.16274012219583808	1.566098699203062	-0.4444505054024301	-0.13370278400103763	1.5895302720713307	-0.43910491663149737	-0.15022962306269627	1.829723668115762	-0.5308582785155164	-0.14074315916291164	1.7034521291926272	-0.5209930164906184	-0.14634423373679367	1.5783041043657378	-0.5035998853724521	-0.18663208066863365	1.5483027782358447	-0.49352263550164877	-0.17890566796783558	1.555084752551615	-0.5151034141491656	-0.13828281309870455	1.5648051210840586	-0.5022550793093337	-0.14722032851718372	1.976965404141605	-0.5029176534882103	-0.18704264349714605	2.0240019812387215	-0.5129963462711016	-0.15616218899110962	1.975428109994126	-0.4229538192962284	-0.17923276821784231	1.9110123216416104	-0.3980571674840605	-0.1946189831837503	1.969672538442306	-0.4192821730314733	-0.13458737175714813	1.9795846836102957	-0.5850680819328984	-0.13116332716839949	1.8969540001163787	-0.5950596425376862	-0.14550557112673068	1.8216690317999853	-0.5999097740867259
